<svg version="1.1" id="Layer_1" xmlns="http://www.w3.org/2000/svg" xmlns:xlink="http://www.w3.org/1999/xlink" x="0px" y="0px"
	 width="100%" viewBox="0 0 996 402" enable-background="new 0 0 996 402" xml:space="preserve">
<path fill="#FEFDFE" opacity="1.000000" stroke="none" 
	d="
M616.000000,403.000000 
	C410.703278,403.000000 205.906540,403.000000 1.054904,403.000000 
	C1.054904,269.060577 1.054904,135.121109 1.054904,1.090822 
	C332.880096,1.090822 664.760254,1.090822 996.820190,1.090822 
	C996.820190,134.999817 996.820190,268.999878 996.820190,403.000000 
	C870.121033,403.000000 743.310486,403.000000 616.000000,403.000000 
M922.433044,288.598236 
	C922.607117,288.061523 922.781250,287.524811 923.197388,286.800354 
	C923.197388,286.800354 923.156555,286.496704 923.661438,286.145599 
	C923.747681,285.754028 923.833923,285.362427 923.991455,284.952515 
	C923.991455,284.952515 923.945740,284.894775 924.449646,284.413208 
	C926.321106,276.539764 929.693115,268.689575 929.815369,260.789062 
	C930.499939,216.536804 930.410095,172.272415 930.502197,128.012009 
	C930.504150,127.059288 929.519897,126.104523 928.067810,125.014404 
	C913.719543,125.064461 899.371216,125.114510 884.177795,125.390038 
	C884.081482,167.915771 883.985107,210.441513 883.523499,253.655243 
	C882.486023,257.273590 882.199585,261.366272 880.270020,264.421173 
	C874.497253,273.560852 860.034180,277.281555 847.338135,273.537659 
	C838.077637,270.806854 833.038635,263.761963 832.972534,251.554214 
	C832.754211,211.270706 832.859253,170.985458 832.840454,130.700867 
	C832.839600,128.924576 832.840332,127.148270 832.840332,125.167801 
	C812.875610,125.167801 793.436890,125.167801 773.128296,125.335167 
	C773.025635,126.817314 772.833984,128.299423 772.833374,129.781601 
	C772.819702,161.713882 772.795105,193.646194 772.847473,225.578400 
	C772.867371,237.713409 773.074097,249.848099 773.066833,262.812805 
	C773.343018,264.957794 773.560181,267.112366 773.904846,269.246307 
	C776.533508,285.523834 783.694763,299.154602 798.646362,307.051514 
	C829.595581,323.397675 861.754639,324.121033 894.244202,312.271576 
	C904.786194,308.426727 914.109131,302.175720 920.538086,291.677338 
	C921.016296,290.779907 921.494507,289.882477 922.005798,288.988342 
	C922.005798,288.988342 921.980225,288.964813 922.433044,288.598236 
M580.003662,342.993561 
	C580.003662,342.993561 579.987732,342.977905 580.301086,342.367767 
	C580.548096,341.248993 580.795044,340.130249 581.742676,339.308044 
	C584.655029,344.135651 586.059570,339.081848 588.192810,338.093475 
	C588.511902,343.395691 587.623230,347.929749 582.360352,350.972229 
	C585.458252,351.594482 588.478699,352.420471 590.395447,351.321442 
	C591.814636,350.507751 591.797974,347.189880 592.531067,344.598328 
	C595.011658,348.356964 595.689514,354.163574 602.588440,351.197754 
	C609.233948,353.936188 614.934143,352.770844 616.806213,347.957123 
	C614.611938,348.282745 612.606323,348.580383 610.600708,348.878021 
	C610.326904,348.351776 610.053101,347.825531 609.779297,347.299286 
	C611.704834,345.572083 613.630432,343.844910 615.803772,341.895477 
	C614.461853,341.352020 613.237244,340.856110 611.858704,340.297852 
	C612.333740,338.587555 612.716980,337.207520 613.211975,335.425293 
	C614.680969,336.573883 615.748291,337.408417 616.815613,338.242981 
	C617.290466,338.123230 617.765320,338.003510 618.240234,337.883789 
	C617.893372,336.330292 617.556335,333.428284 617.198303,333.425720 
	C611.908020,333.387329 606.047241,331.485931 601.590759,336.733612 
	C601.075745,336.157440 600.560730,335.581268 599.498413,334.465088 
	C595.334900,334.321503 591.171387,334.177887 586.222534,334.100586 
	C585.476440,334.078156 584.730347,334.055725 584.005676,334.006134 
	C584.005676,334.006134 583.972107,334.011841 583.599670,333.302734 
	C581.045471,333.514801 578.491333,333.726868 575.986145,334.003052 
	C575.986145,334.003052 575.927673,333.942719 575.335388,334.189178 
	C575.869995,335.312866 576.404541,336.436584 576.624268,337.726532 
	C576.503845,337.986267 576.562195,338.196045 576.243225,338.925507 
	C575.882446,341.286102 575.521729,343.646729 574.961243,346.432678 
	C574.961243,346.432678 574.958130,346.902618 574.460266,347.284363 
	C573.476624,347.997833 572.492920,348.711304 571.313782,349.575684 
	C571.313782,349.575684 571.220581,349.804413 570.743286,350.393982 
	C573.521362,350.607330 576.299377,350.820679 579.703796,350.800507 
	C579.742737,350.203705 579.781677,349.606873 579.602539,348.444611 
	C579.228638,348.326050 578.854797,348.207520 578.717407,347.525818 
	C578.852112,347.149628 578.986816,346.773438 579.430603,345.748016 
	C579.614868,344.831512 579.799072,343.914978 580.003662,342.993561 
M671.106506,350.110352 
	C671.106506,350.110352 671.259399,350.115082 671.856079,350.167969 
	C672.601868,350.429169 673.347717,350.690399 674.800110,351.200439 
	C681.857483,353.738464 684.025330,348.638458 686.278381,343.068604 
	C687.603027,345.515350 688.510620,347.426270 689.640747,349.194977 
	C690.369080,350.334808 691.424072,351.265900 692.332642,352.290558 
	C693.180969,351.041077 694.161621,349.857574 694.829529,348.518127 
	C695.249329,347.676239 695.212830,346.602356 695.358887,345.629211 
	C696.021790,341.210754 695.448059,336.108246 701.494385,334.671387 
	C701.683105,334.626495 701.692444,333.826599 701.784912,333.381042 
	C695.409119,331.919586 694.914062,332.336243 691.601929,341.856873 
	C689.747925,338.968079 688.537048,335.059692 685.934509,333.549042 
	C682.829712,331.746857 679.251587,333.718292 676.425842,337.025238 
	C675.962341,337.013947 675.498901,337.002625 674.608337,336.456818 
	C673.124573,334.836395 671.640747,333.215973 670.173584,331.613739 
	C670.812195,330.664490 671.581238,329.521271 673.116272,327.239441 
	C670.664856,327.932892 669.142151,327.907837 668.388916,328.656738 
	C665.361450,331.666870 661.601746,334.492920 659.982300,338.203094 
	C658.520996,341.550842 658.371948,346.400726 659.690674,349.792480 
	C661.266296,353.845123 665.798523,352.513428 670.018311,351.702026 
	C670.384705,351.222321 670.751099,350.742615 671.106506,350.110352 
M885.432922,350.127808 
	C885.432922,350.127808 885.453857,350.326355 885.959778,350.049255 
	C886.381897,349.196991 886.804016,348.344727 887.911865,347.038239 
	C889.280762,347.678345 890.649597,348.318451 891.992676,348.981873 
	C891.992676,348.981873 892.024780,348.983704 892.005371,349.838654 
	C893.258423,350.551453 894.462341,351.714539 895.777588,351.858185 
	C897.278259,352.022095 898.885315,350.952057 900.433655,350.985931 
	C906.419922,351.116882 912.400146,351.571869 918.385681,351.642853 
	C919.298950,351.653717 921.081665,350.192047 921.017761,349.556702 
	C920.435974,343.770142 921.301086,338.442963 925.912231,333.112457 
	C922.390076,333.112457 919.804138,333.112457 916.415161,333.053680 
	C915.878662,333.064117 915.342102,333.074585 914.073425,332.895325 
	C902.215881,331.889709 899.138977,334.953644 898.378601,349.760406 
	C897.202026,347.920288 896.596619,346.973450 896.018799,345.098572 
	C895.886414,343.313080 895.887756,341.504791 895.588379,339.747742 
	C895.195374,337.441650 894.565308,335.175903 893.423950,332.681122 
	C891.259338,333.054657 889.094727,333.428192 886.222900,333.819977 
	C884.546875,335.995209 882.870850,338.170410 881.194885,340.345612 
	C881.608154,340.692139 882.021423,341.038635 882.434753,341.385132 
	C883.876892,341.026520 885.319092,340.667908 887.631409,340.092896 
	C886.187866,342.979156 885.122314,345.109680 883.536255,347.768311 
	C883.324219,348.021240 883.129028,348.477783 882.897766,348.496918 
	C878.635315,348.848572 874.362976,349.380554 870.107056,349.278107 
	C869.164124,349.255402 867.641052,347.015472 867.510315,345.685852 
	C867.309326,343.641144 867.743652,341.368256 868.505249,339.426147 
	C870.695557,333.839905 873.122131,333.524658 877.330627,338.975006 
	C877.812073,336.755615 878.426025,335.176758 878.310913,333.652954 
	C878.278625,333.225220 875.970398,332.446259 874.934692,332.713715 
	C871.567810,333.583221 868.306885,334.862732 864.209290,335.631622 
	C863.703674,334.799225 863.190125,333.238892 862.693665,333.244324 
	C855.958618,333.317627 849.225952,333.608154 841.795593,333.861694 
	C840.154114,334.613953 838.512573,335.366211 836.893860,335.248993 
	C836.335693,334.552460 835.871460,333.379669 835.202087,333.247742 
	C833.104126,332.834137 830.916992,332.902252 828.786011,332.620514 
	C824.598755,332.066864 822.128296,333.909454 821.051453,337.877014 
	C820.688171,339.215485 820.294800,340.545776 819.859192,342.076630 
	C816.301575,338.933624 817.445984,330.778717 809.643555,333.573639 
	C806.203064,334.806122 804.138184,337.053375 805.076904,341.695618 
	C806.889160,340.855438 808.340088,340.182800 810.485168,339.188293 
	C809.644836,342.774109 808.951477,345.732697 808.343689,348.325958 
	C805.400452,348.075073 803.270386,347.893494 800.672974,347.672089 
	C800.362610,343.046753 800.032654,338.129669 799.705566,333.255310 
	C791.440796,331.998566 785.617798,334.431854 786.746887,341.782684 
	C787.773682,341.939728 788.834351,342.101990 789.922546,342.268463 
	C787.790588,349.268005 787.790588,349.268005 780.499695,347.778046 
	C778.314636,348.134583 776.129517,348.491150 773.387878,348.938538 
	C774.446350,344.130432 775.338318,340.078552 776.285889,335.774414 
	C777.692322,336.874359 778.607422,337.589996 780.187805,338.825989 
	C780.613831,336.492615 780.907959,334.881897 781.204529,333.257721 
	C774.451843,332.187103 771.432678,334.069550 770.607666,339.705048 
	C769.990173,343.923431 770.175232,348.405334 764.677002,350.385925 
	C770.089600,352.764740 774.987976,353.396332 780.647644,351.168518 
	C784.957642,353.438507 788.473816,352.646667 791.368042,348.634155 
	C792.033081,347.712097 793.340088,347.253082 794.351685,346.580963 
	C795.011780,347.627258 795.761353,348.630096 796.299194,349.735870 
	C796.633240,350.422577 796.646423,351.265320 796.857971,352.305389 
	C803.624512,351.142700 812.022095,354.386505 814.022644,342.259125 
	C815.804138,345.793640 816.552673,347.979065 817.898438,349.696533 
	C818.759155,350.794983 820.502258,351.202057 822.666565,351.945557 
	C823.209167,351.904755 823.751709,351.863953 825.130127,351.761230 
	C826.933228,351.749207 828.794495,352.001678 830.516907,351.622772 
	C831.500305,351.406494 832.867371,350.258118 833.009521,349.362457 
	C833.592773,345.687775 833.612122,341.922577 834.218750,338.253418 
	C834.360046,337.398834 835.992188,336.790710 837.730530,336.410431 
	C837.786499,338.296387 835.396484,341.210022 839.970398,341.256683 
	C840.553528,341.262604 841.549744,343.791870 841.580139,345.169189 
	C841.629211,347.392639 841.034546,349.630280 840.711731,351.861908 
	C841.062805,352.183563 841.413879,352.505219 841.764954,352.826874 
	C842.977234,351.775696 844.479248,350.918365 845.340149,349.631958 
	C847.010681,347.135834 848.320984,344.398560 849.932373,341.486877 
	C849.807007,341.431213 848.685608,340.933350 847.402344,340.363586 
	C847.835571,338.895966 848.274231,337.410034 848.606384,336.284790 
	C850.799194,335.511169 852.483887,341.195465 854.863708,335.876465 
	C855.309937,336.705414 856.305847,337.700775 856.113464,338.336456 
	C854.814941,342.626587 853.264587,346.840546 851.563782,351.748657 
	C853.253967,351.748657 855.822693,351.950287 858.317078,351.608826 
	C858.951904,351.521942 859.628723,349.756470 859.807373,348.682587 
	C860.433228,344.919861 860.672546,341.082764 861.501160,337.372742 
	C861.659668,336.663116 863.827209,336.402191 864.914185,336.648407 
	C864.103455,339.930176 862.485779,343.284180 862.770569,346.467926 
	C862.955200,348.531342 865.711182,351.705444 867.677612,352.005615 
	C872.652283,352.764954 877.832031,352.201691 882.928345,352.101837 
	C883.323364,352.094055 883.708191,351.567841 884.670044,351.178925 
	C884.915222,350.894470 885.160400,350.610016 885.432922,350.127808 
M937.934692,349.819611 
	C937.934692,349.819611 937.721680,349.627380 938.290283,350.002197 
	C938.886841,350.320160 939.483398,350.638123 940.786499,351.209808 
	C947.881165,353.766571 950.004761,348.543060 952.229370,343.124390 
	C953.018250,344.560577 953.408325,345.472290 953.972717,346.259033 
	C955.431152,348.292328 956.966553,350.270416 958.471191,352.270599 
	C959.432678,349.807129 960.603149,347.401703 961.307312,344.866791 
	C962.400879,340.930542 961.336304,335.814880 967.351990,334.819946 
	C967.572876,334.783386 967.626648,333.736359 968.074707,331.775757 
	C964.952271,332.901520 962.302185,333.164001 960.749084,334.607117 
	C959.114502,336.125854 958.528992,338.773529 957.430115,341.041473 
	C955.372864,338.271210 953.999451,334.734100 951.481995,333.463226 
	C948.402832,331.908783 945.093201,333.888519 942.384155,337.015625 
	C941.924377,337.009125 941.464539,337.002625 940.565430,336.468140 
	C939.078064,334.839539 937.590698,333.210907 936.085449,331.562714 
	C936.690308,330.743591 937.521973,329.617432 938.353699,328.491241 
	C936.419739,328.023987 934.735535,328.170746 933.739197,329.075195 
	C931.164368,331.412445 928.696350,333.929291 926.548401,336.659760 
	C923.567505,340.449158 923.071655,346.927216 925.317444,349.800446 
	C928.480408,353.847076 932.384827,352.382141 936.820190,351.026245 
	C937.110962,350.572723 937.401794,350.119202 937.934692,349.819611 
M793.625244,372.692535 
	C793.764954,372.807343 793.904602,372.922150 793.930542,373.721619 
	C795.573853,380.532715 793.860901,383.466095 787.728638,384.664825 
	C787.144836,384.778931 786.763916,385.930969 786.169617,386.769318 
	C793.724915,387.953857 795.482117,387.438782 797.532410,383.093933 
	C798.364868,381.329987 798.208801,379.003967 799.276794,377.474182 
	C800.308899,375.995880 802.336975,375.212860 804.498779,373.733612 
	C803.403992,373.202423 802.669312,373.089844 802.429016,372.684387 
	C801.656921,371.381348 801.067383,369.970215 800.407410,368.600769 
	C800.854675,368.330566 801.301880,368.060364 801.749084,367.790131 
	C802.923462,368.468689 804.097778,369.147217 805.739807,370.096008 
	C806.267517,368.347839 806.661987,367.041260 807.229065,365.162598 
	C802.969360,365.162598 799.270935,364.658997 795.811279,365.350281 
	C793.713867,365.769409 791.306213,367.660522 790.250732,369.563141 
	C788.656921,372.436401 790.194519,373.588959 793.625244,372.692535 
M724.893799,336.391632 
	C722.384460,333.312317 714.634644,331.948425 709.483826,333.700989 
	C706.050049,334.869354 704.781677,337.412506 704.713684,342.291107 
	C707.146851,340.470490 708.718445,339.294525 710.290039,338.118561 
	C710.679504,338.302216 711.068970,338.485840 711.458374,338.669495 
	C709.482117,342.927551 707.505798,347.185608 705.500732,351.505646 
	C708.889526,351.505646 712.685730,351.883514 716.374817,351.415863 
	C721.725708,350.737549 724.357483,347.538727 725.854309,341.365845 
	C727.632263,340.995789 729.410217,340.625702 732.729553,339.934784 
	C730.720886,344.135315 729.045715,347.638550 727.345703,351.193573 
	C732.127808,354.225922 740.060486,352.744385 741.018066,348.053589 
	C738.980896,348.272827 736.933777,348.493134 734.886597,348.713440 
	C734.632935,348.128845 734.379272,347.544250 734.125549,346.959656 
	C736.160583,345.297943 738.195679,343.636230 740.604004,341.669678 
	C738.964111,341.215118 737.778931,340.886597 736.350891,340.490784 
	C736.733643,338.852661 737.077271,337.381989 737.549133,335.362488 
	C739.157471,336.628601 740.236084,337.477631 741.923096,338.805695 
	C742.478638,336.776276 742.902649,335.227539 743.452942,333.217377 
	C736.648804,333.255585 730.342285,331.698364 725.795349,337.533600 
	C725.754639,337.585846 725.250000,337.276581 724.893799,336.391632 
M634.360962,334.640320 
	C634.023865,334.097107 633.759033,333.148132 633.338562,333.073303 
	C629.016479,332.304169 624.662842,331.843414 621.253540,335.491486 
	C617.881165,339.100037 616.271118,346.100555 618.879639,349.312500 
	C620.327698,351.095551 623.579163,351.892517 626.118225,352.152435 
	C627.989075,352.343994 630.022583,350.946014 631.983643,350.256287 
	C631.801331,349.746796 631.619019,349.237305 631.436768,348.727814 
	C630.673645,348.727814 629.880859,348.591309 629.152100,348.749512 
	C623.680176,349.937531 621.781067,348.114044 622.995911,342.579712 
	C623.381836,340.821716 623.882507,338.907318 624.931335,337.517914 
	C626.613892,335.288940 628.706421,332.394165 631.036377,337.225983 
	C631.284363,337.740143 632.677856,337.701904 633.755371,338.748444 
	C633.467102,340.044525 633.119690,341.330658 632.900513,342.638306 
	C631.729736,349.624084 634.592651,352.808929 641.523376,352.330170 
	C644.972717,352.091919 648.449219,352.099701 651.868530,351.652649 
	C653.080261,351.494171 655.224854,350.123352 655.135986,349.634918 
	C654.058777,343.714783 655.892273,338.616028 659.682739,333.110779 
	C656.415771,333.110779 653.819519,333.110779 650.426819,333.050415 
	C649.894531,333.057953 649.362183,333.065460 648.093872,332.884888 
	C643.724487,333.601044 639.355164,334.317169 634.360962,334.640320 
M53.102661,92.129219 
	C53.100876,105.414444 53.099094,118.699669 53.449879,132.771118 
	C67.030144,132.771118 80.610413,132.771118 94.545357,132.771118 
	C94.545357,119.091156 94.545357,105.580185 94.545357,91.920296 
	C80.865654,91.920296 67.434601,91.920296 53.102661,92.129219 
M508.843597,307.355011 
	C524.724792,307.361572 540.605957,307.385223 556.487122,307.356842 
	C558.949646,307.352448 561.411682,307.110016 564.282227,306.122375 
	C564.386230,291.134155 564.490234,276.145966 565.440979,261.337128 
	C598.269592,261.346466 631.098206,261.401001 663.926758,261.347290 
	C682.018372,261.317688 699.236023,257.497375 715.249634,248.861618 
	C739.392700,235.841827 755.178528,212.818909 750.543823,182.314133 
	C748.446777,168.512085 742.421082,157.116119 732.652222,147.900970 
	C714.798157,131.058899 692.558594,123.423775 668.608337,122.882446 
	C628.134583,121.967644 587.625122,122.612930 547.130920,122.711983 
	C545.744507,122.715370 543.907837,123.529602 543.045227,124.588425 
	C533.002991,136.915176 523.071899,149.333359 513.202332,161.799316 
	C511.109772,164.442413 509.383759,167.375748 506.929657,171.001495 
	C510.074829,171.160492 512.155518,171.356796 514.236389,171.357544 
	C565.562683,171.375854 616.889099,171.330536 668.215027,171.464417 
	C671.917786,171.474075 675.774475,172.314972 679.287231,173.546280 
	C687.918884,176.571884 693.538696,184.082092 693.628113,191.906265 
	C693.712769,199.321243 687.890869,207.959320 679.420349,210.245819 
	C672.550110,212.100327 665.130981,212.506653 657.951294,212.534561 
	C609.958618,212.721130 561.964844,212.630432 513.971436,212.647858 
	C511.982147,212.648575 509.992920,212.829346 507.100403,213.128616 
	C506.958160,213.597336 506.691833,214.065933 506.691345,214.534805 
	C506.659729,244.587784 506.637634,274.640808 506.699158,304.693665 
	C506.700928,305.551422 507.612274,306.407379 508.843597,307.355011 
M257.907959,311.323669 
	C301.525482,311.005341 345.142944,310.682251 388.760529,310.371429 
	C403.495361,310.266418 417.422668,306.545349 430.959045,301.034698 
	C448.413635,293.928894 463.160797,282.992401 473.992584,267.689270 
	C486.925903,249.417160 492.365967,228.951828 489.516174,206.297318 
	C487.624908,191.262756 482.355042,177.848587 473.110657,166.097366 
	C452.434540,139.814240 423.704132,128.097137 391.716003,127.053513 
	C342.443909,125.445969 293.080780,126.608315 243.756470,126.699539 
	C241.939667,126.702896 239.910904,127.458817 238.342911,128.441589 
	C225.322845,136.602188 213.879654,146.626480 204.372849,158.690613 
	C200.592773,163.487534 197.638824,168.935455 193.480713,175.368011 
	C197.277115,175.368011 199.387512,175.368332 201.497910,175.367966 
	C217.465820,175.365219 233.433716,175.359543 249.401627,175.360046 
	C293.227112,175.361450 337.053101,175.480576 380.877686,175.285187 
	C391.473083,175.237961 401.076752,178.020096 410.256317,182.905548 
	C433.411133,195.228638 440.007568,223.724991 424.916809,243.423340 
	C414.957642,256.423309 400.799103,261.952759 385.100433,262.451416 
	C361.300140,263.207489 337.462433,262.785645 313.455200,261.957001 
	C313.423920,241.511322 313.421936,221.065475 313.302612,200.620300 
	C313.293610,199.075684 312.449768,197.535934 311.076447,195.783737 
	C293.054016,195.866699 275.031586,195.949677 256.156860,196.310104 
	C255.988144,197.446243 255.672806,198.582291 255.671997,199.718552 
	C255.646271,235.608246 255.637741,271.497986 255.707993,307.387543 
	C255.710403,308.618225 256.549072,309.847290 257.907959,311.323669 
M194.291046,312.134491 
	C190.262009,305.691681 185.875916,299.442078 182.267075,292.771912 
	C168.256790,266.876709 162.897125,238.995529 167.666519,210.123596 
	C173.261200,176.255722 189.951477,148.310394 217.216125,126.756172 
	C240.929184,108.009644 267.634918,95.605919 296.461060,87.424385 
	C307.179199,84.382324 318.125824,82.145233 330.112793,79.266167 
	C328.517670,78.077667 327.647308,76.907104 326.610474,76.733994 
	C307.130005,73.481445 287.577209,73.598526 268.174652,76.910194 
	C239.240860,81.848671 213.125137,93.658905 189.340164,110.770912 
	C186.079330,113.116920 183.962799,115.570145 184.549454,120.091560 
	C185.188217,125.014801 185.003159,130.052200 185.064178,135.041229 
	C185.134293,140.773407 185.080444,146.507095 185.080444,152.388626 
	C184.016357,152.480927 183.199249,152.633652 182.387329,152.609818 
	C172.250488,152.312363 162.114899,151.971497 151.977844,151.682693 
	C148.557587,151.585236 145.707886,151.349747 143.152100,155.239853 
	C131.236847,173.375839 123.833763,192.973938 120.477386,214.443222 
	C117.738297,231.963959 118.734116,249.091660 123.463226,265.937195 
	C133.378326,301.255768 155.861633,327.820587 183.903168,350.179565 
	C198.943420,362.171936 216.085999,370.648560 233.811981,377.854767 
	C256.299500,386.996826 279.586914,393.384033 303.710602,396.337250 
	C317.006989,397.964996 330.356506,399.292267 343.720001,400.190369 
	C352.221008,400.761688 360.791595,400.297211 369.330994,400.297211 
	C369.352631,399.685150 369.374298,399.073059 369.395966,398.460999 
	C365.582825,398.273163 361.649475,398.623840 357.977325,397.804260 
	C342.065186,394.252869 326.074432,390.905884 310.402771,386.460358 
	C287.949219,380.090942 266.742310,370.663269 246.875320,358.250549 
	C227.026184,345.848938 209.549332,330.826477 194.291046,312.134491 
M336.076477,379.370636 
	C340.645935,380.058655 345.231262,380.655853 349.782196,381.450012 
	C373.030884,385.507050 396.413971,385.654053 419.641235,382.207825 
	C445.546051,378.364319 469.633514,369.319427 490.617737,353.153351 
	C493.987488,350.557343 496.923584,347.398468 500.060120,344.499756 
	C499.646820,343.855316 499.233551,343.210876 498.820251,342.566406 
	C496.736572,343.115295 494.584930,343.483856 492.579529,344.240265 
	C465.725830,354.369019 437.887543,360.406708 409.306000,361.341187 
	C392.152222,361.902039 374.737061,360.734406 357.734589,358.290161 
	C326.699585,353.828674 297.035553,344.206482 269.703033,328.614594 
	C257.365173,321.576508 245.233093,313.788879 234.293350,304.780029 
	C218.002304,291.364380 206.805588,273.887085 199.705475,253.933792 
	C192.638626,234.074005 189.281082,213.697510 191.250732,192.572205 
	C191.544846,189.417755 191.291656,186.212280 191.291656,183.030426 
	C190.591919,182.799652 189.892181,182.568878 189.192429,182.338104 
	C187.326157,185.412781 185.081375,188.322525 183.657394,191.589966 
	C176.491592,208.032394 173.951569,225.236191 174.525497,243.178009 
	C175.070053,260.201660 180.260269,275.592224 188.421539,290.208130 
	C198.194595,307.710571 212.076172,321.688660 227.332230,334.310181 
	C240.138931,344.905304 253.809555,354.275818 269.475922,360.349457 
	C290.832397,368.629120 312.814148,374.722717 336.076477,379.370636 
M177.234467,142.503876 
	C177.234467,123.677284 177.234467,104.850693 177.234467,85.955734 
	C157.026703,85.955734 137.795395,85.955734 118.399155,85.955734 
	C118.399155,105.152779 118.399155,124.024651 118.399155,143.222534 
	C137.970840,143.222534 157.247833,143.222534 177.234467,142.503876 
M171.848038,25.155386 
	C158.854462,25.150433 145.857803,25.300476 132.869202,25.043867 
	C129.087631,24.969156 127.699898,26.409155 127.690834,29.817183 
	C127.657600,42.310535 127.623970,54.804073 127.665810,67.297295 
	C127.675484,70.186615 128.955429,71.911507 132.233231,71.888756 
	C144.226746,71.805527 156.221191,71.857742 168.215286,71.853699 
	C172.335464,71.852310 174.539551,70.434341 174.470276,65.658775 
	C174.289261,53.179539 174.632721,40.693260 174.607666,28.210112 
	C174.605682,27.219946 173.373688,26.232248 171.848038,25.155386 
M102.899467,64.202255 
	C102.897331,56.878448 102.819954,49.553497 102.930779,42.231403 
	C102.973946,39.379482 102.229683,37.995289 99.013947,38.075035 
	C91.361946,38.264793 83.698448,38.271484 76.047012,38.070263 
	C72.832184,37.985718 72.064293,39.348076 72.103249,42.200760 
	C72.205498,49.689613 72.194794,57.181484 72.106758,64.670715 
	C72.072601,67.576180 73.112869,68.943405 76.180466,68.900795 
	C83.835693,68.794426 91.494308,68.799599 99.149635,68.903168 
	C101.897034,68.940331 103.253510,67.994324 102.899467,64.202255 
M54.905918,65.281494 
	C54.904552,59.470188 54.841187,53.657913 54.931976,47.848049 
	C54.968906,45.484989 54.451763,44.063198 51.679256,44.102448 
	C44.873135,44.198803 38.060268,44.008644 31.261703,44.254284 
	C30.186235,44.293140 28.302938,45.968140 28.267107,46.940964 
	C28.010616,53.904877 27.923025,60.894978 28.319483,67.846092 
	C28.398640,69.233963 30.718615,71.530800 32.125702,71.625809 
	C38.062897,72.026672 44.046261,71.689331 50.011463,71.749123 
	C53.887455,71.787964 55.429409,69.970322 54.905918,65.281494 
M729.904968,368.195496 
	C729.592224,366.941284 729.279541,365.687042 728.966858,364.432831 
	C727.789856,365.310547 725.934326,365.969910 725.567932,367.108490 
	C724.614624,370.070862 724.553711,373.314362 723.666138,376.306122 
	C723.122864,378.137634 721.711243,379.711517 720.689575,381.401093 
	C720.057617,381.133911 719.425659,380.866730 718.793701,380.599548 
	C719.434692,375.657990 720.075745,370.716461 720.711609,365.814972 
	C713.230408,364.075134 709.341797,367.028168 710.412659,373.420166 
	C711.569885,373.420166 712.735596,373.420166 713.886902,373.420166 
	C714.116150,384.380157 718.955505,387.063599 729.748901,382.564178 
	C726.179688,378.027924 729.614136,373.485504 729.904968,368.195496 
M565.940063,333.145905 
	C562.957336,333.223480 559.920776,332.975250 557.005005,333.457611 
	C552.985352,334.122620 551.004028,336.742401 551.051208,341.311493 
	C552.928345,340.936584 554.275879,340.667419 557.464966,340.030487 
	C555.291870,344.495178 553.662048,347.843719 551.620178,352.038879 
	C556.195557,351.594391 561.026611,351.760529 565.466492,350.523132 
	C570.351562,349.161682 572.022522,344.474548 572.152283,339.863220 
	C572.242126,336.670319 570.730774,333.661774 565.940063,333.145905 
M746.987183,372.695618 
	C745.067688,376.272064 745.693970,382.653992 738.416016,380.424774 
	C738.078674,380.321503 737.233154,381.877594 736.311035,383.063934 
	C741.130432,384.580841 744.658081,384.490356 747.270447,380.294037 
	C747.836426,379.384857 749.248718,378.626801 750.317932,378.561310 
	C750.871826,378.527344 751.621216,380.113708 752.110107,381.057251 
	C752.544006,381.894775 752.739929,382.855560 753.188965,384.207794 
	C755.445129,383.735199 757.500244,383.304688 760.174133,382.744568 
	C753.639404,377.431091 757.628296,370.385315 755.198303,364.931000 
	C748.708313,363.729919 740.740784,366.448761 743.386841,372.994537 
	C744.431580,372.695190 745.504700,372.387665 746.987183,372.695618 
M754.622559,333.681091 
	C752.848572,335.725006 751.074585,337.768951 749.300598,339.812897 
	C749.631897,340.201538 749.963196,340.590210 750.294434,340.978882 
	C751.849121,340.978882 753.403870,340.978882 756.609009,340.978882 
	C754.364441,344.956299 752.660522,347.975769 750.539124,351.734894 
	C752.735229,351.734894 755.096863,351.870667 757.427002,351.659088 
	C758.211792,351.587891 759.623108,350.265961 759.556091,350.137421 
	C756.663574,344.592590 762.060059,344.974243 764.335693,342.876526 
	C766.053650,341.292969 767.483337,338.526520 767.461914,336.301697 
	C767.451599,335.225098 763.912659,333.734833 761.785828,333.256409 
	C759.799500,332.809631 757.567810,333.453888 754.622559,333.681091 
M767.563354,373.561249 
	C769.396423,371.599396 771.229431,369.637512 773.062439,367.675659 
	C773.644958,368.049225 774.227478,368.422821 774.809937,368.796387 
	C772.836426,373.660919 770.862976,378.525452 768.818298,383.565338 
	C770.355774,383.565338 772.645447,383.750427 774.878540,383.475891 
	C775.794250,383.363342 777.232483,382.343201 777.331238,381.591278 
	C777.918762,377.116821 778.183838,372.600067 778.533691,368.380463 
	C785.509766,366.941223 786.348450,366.210144 786.611816,362.722656 
	C781.632507,363.577606 776.459412,364.276978 771.378967,365.396790 
	C767.174133,366.323639 765.318237,370.057251 767.563354,373.561249 
z"/>
<path fill="#02147F" opacity="1.000000" stroke="none" 
	d="
M257.009155,196.032639 
	C275.031586,195.949677 293.054016,195.866699 311.536255,196.357849 
	C311.997650,217.185196 311.959595,237.438660 312.072052,257.691284 
	C312.081635,259.418457 313.094055,261.140015 313.640625,262.864197 
	C337.462433,262.785645 361.300140,263.207489 385.100433,262.451416 
	C400.799103,261.952759 414.957642,256.423309 424.916809,243.423340 
	C440.007568,223.724991 433.411133,195.228638 410.256317,182.905548 
	C401.076752,178.020096 391.473083,175.237961 380.877686,175.285187 
	C337.053101,175.480576 293.227112,175.361450 249.401627,175.360046 
	C233.433716,175.359543 217.465820,175.365219 201.497910,175.367966 
	C199.387512,175.368332 197.277115,175.368011 193.480713,175.368011 
	C197.638824,168.935455 200.592773,163.487534 204.372849,158.690613 
	C213.879654,146.626480 225.322845,136.602188 238.342911,128.441589 
	C239.910904,127.458817 241.939667,126.702896 243.756470,126.699539 
	C293.080780,126.608315 342.443909,125.445969 391.716003,127.053513 
	C423.704132,128.097137 452.434540,139.814240 473.110657,166.097366 
	C482.355042,177.848587 487.624908,191.262756 489.516174,206.297318 
	C492.365967,228.951828 486.925903,249.417160 473.992584,267.689270 
	C463.160797,282.992401 448.413635,293.928894 430.959045,301.034698 
	C417.422668,306.545349 403.495361,310.266418 388.760529,310.371429 
	C345.142944,310.682251 301.525482,311.005341 257.454132,310.726501 
	C257.003235,272.097107 257.006195,234.064865 257.009155,196.032639 
z"/>
<path fill="#02147F" opacity="1.000000" stroke="none" 
	d="
M563.873962,306.977631 
	C561.411682,307.110016 558.949646,307.352448 556.487122,307.356842 
	C540.605957,307.385223 524.724792,307.361572 508.442261,306.824463 
	C508.028503,275.171326 508.016083,244.048782 508.003662,212.926239 
	C509.992920,212.829346 511.982147,212.648575 513.971436,212.647858 
	C561.964844,212.630432 609.958618,212.721130 657.951294,212.534561 
	C665.130981,212.506653 672.550110,212.100327 679.420349,210.245819 
	C687.890869,207.959320 693.712769,199.321243 693.628113,191.906265 
	C693.538696,184.082092 687.918884,176.571884 679.287231,173.546280 
	C675.774475,172.314972 671.917786,171.474075 668.215027,171.464417 
	C616.889099,171.330536 565.562683,171.375854 514.236389,171.357544 
	C512.155518,171.356796 510.074829,171.160492 506.929657,171.001495 
	C509.383759,167.375748 511.109772,164.442413 513.202332,161.799316 
	C523.071899,149.333359 533.002991,136.915176 543.045227,124.588425 
	C543.907837,123.529602 545.744507,122.715370 547.130920,122.711983 
	C587.625122,122.612930 628.134583,121.967644 668.608337,122.882446 
	C692.558594,123.423775 714.798157,131.058899 732.652222,147.900970 
	C742.421082,157.116119 748.446777,168.512085 750.543823,182.314133 
	C755.178528,212.818909 739.392700,235.841827 715.249634,248.861618 
	C699.236023,257.497375 682.018372,261.317688 663.926758,261.347290 
	C631.098206,261.401001 598.269592,261.346466 564.610840,261.403015 
	C563.587646,261.735260 563.226624,262.001038 563.225586,262.268158 
	C563.169373,276.750824 563.137024,291.233551 563.146362,305.716278 
	C563.146667,306.136902 563.620789,306.557190 563.873962,306.977631 
z"/>
<path fill="#02147F" opacity="1.000000" stroke="none" 
	d="
M773.998108,125.167801 
	C793.436890,125.167801 812.875610,125.167801 832.840332,125.167801 
	C832.840332,127.148270 832.839600,128.924576 832.840454,130.700867 
	C832.859253,170.985458 832.754211,211.270706 832.972534,251.554214 
	C833.038635,263.761963 838.077637,270.806854 847.338135,273.537659 
	C860.034180,277.281555 874.497253,273.560852 880.270020,264.421173 
	C882.199585,261.366272 882.486023,257.273590 884.027954,253.045837 
	C884.690369,250.466187 884.984497,248.496017 884.986084,246.525635 
	C885.018372,206.071960 885.017334,165.618256 885.022949,125.164566 
	C899.371216,125.114510 913.719543,125.064461 928.535522,125.541512 
	C929.002991,160.522278 929.090393,194.976273 928.962769,229.429459 
	C928.905212,244.959320 930.196594,260.597839 926.028503,275.885040 
	C925.218323,278.856659 924.634155,281.889954 923.945740,284.894775 
	C923.945740,284.894775 923.991455,284.952515 923.725769,285.154785 
	C923.358887,285.736938 923.257690,286.116821 923.156494,286.496704 
	C923.156555,286.496704 923.197388,286.800354 922.837219,287.063293 
	C922.311462,287.872437 922.145813,288.418640 921.980225,288.964813 
	C921.980225,288.964813 922.005798,288.988342 921.646729,289.043823 
	C920.860352,290.067871 920.433105,291.036438 920.005859,292.005005 
	C914.109131,302.175720 904.786194,308.426727 894.244202,312.271576 
	C861.754639,324.121033 829.595581,323.397675 798.646362,307.051514 
	C783.694763,299.154602 776.533508,285.523834 773.904846,269.246307 
	C773.560181,267.112366 773.343018,264.957794 773.384277,262.071808 
	C773.800720,259.680847 773.985657,258.030884 773.986267,256.380890 
	C774.001892,212.643188 773.998352,168.905502 773.998108,125.167801 
z"/>
<path fill="#FC0303" opacity="1.000000" stroke="none" 
	d="
M194.543640,312.391663 
	C209.549332,330.826477 227.026184,345.848938 246.875320,358.250549 
	C266.742310,370.663269 287.949219,380.090942 310.402771,386.460358 
	C326.074432,390.905884 342.065186,394.252869 357.977325,397.804260 
	C361.649475,398.623840 365.582825,398.273163 369.395966,398.460999 
	C369.374298,399.073059 369.352631,399.685150 369.330994,400.297211 
	C360.791595,400.297211 352.221008,400.761688 343.720001,400.190369 
	C330.356506,399.292267 317.006989,397.964996 303.710602,396.337250 
	C279.586914,393.384033 256.299500,386.996826 233.811981,377.854767 
	C216.085999,370.648560 198.943420,362.171936 183.903168,350.179565 
	C155.861633,327.820587 133.378326,301.255768 123.463226,265.937195 
	C118.734116,249.091660 117.738297,231.963959 120.477386,214.443222 
	C123.833763,192.973938 131.236847,173.375839 143.152100,155.239853 
	C145.707886,151.349747 148.557587,151.585236 151.977844,151.682693 
	C162.114899,151.971497 172.250488,152.312363 182.387329,152.609818 
	C183.199249,152.633652 184.016357,152.480927 185.080444,152.388626 
	C185.080444,146.507095 185.134293,140.773407 185.064178,135.041229 
	C185.003159,130.052200 185.188217,125.014801 184.549454,120.091560 
	C183.962799,115.570145 186.079330,113.116920 189.340164,110.770912 
	C213.125137,93.658905 239.240860,81.848671 268.174652,76.910194 
	C287.577209,73.598526 307.130005,73.481445 326.610474,76.733994 
	C327.647308,76.907104 328.517670,78.077667 330.112793,79.266167 
	C318.125824,82.145233 307.179199,84.382324 296.461060,87.424385 
	C267.634918,95.605919 240.929184,108.009644 217.216125,126.756172 
	C189.951477,148.310394 173.261200,176.255722 167.666519,210.123596 
	C162.897125,238.995529 168.256790,266.876709 182.267075,292.771912 
	C185.875916,299.442078 190.262009,305.691681 194.543640,312.391663 
z"/>
<path fill="#FB0404" opacity="1.000000" stroke="none" 
	d="
M335.650269,379.357788 
	C312.814148,374.722717 290.832397,368.629120 269.475922,360.349457 
	C253.809555,354.275818 240.138931,344.905304 227.332230,334.310181 
	C212.076172,321.688660 198.194595,307.710571 188.421539,290.208130 
	C180.260269,275.592224 175.070053,260.201660 174.525497,243.178009 
	C173.951569,225.236191 176.491592,208.032394 183.657394,191.589966 
	C185.081375,188.322525 187.326157,185.412781 189.192429,182.338104 
	C189.892181,182.568878 190.591919,182.799652 191.291656,183.030426 
	C191.291656,186.212280 191.544846,189.417755 191.250732,192.572205 
	C189.281082,213.697510 192.638626,234.074005 199.705475,253.933792 
	C206.805588,273.887085 218.002304,291.364380 234.293350,304.780029 
	C245.233093,313.788879 257.365173,321.576508 269.703033,328.614594 
	C297.035553,344.206482 326.699585,353.828674 357.734589,358.290161 
	C374.737061,360.734406 392.152222,361.902039 409.306000,361.341187 
	C437.887543,360.406708 465.725830,354.369019 492.579529,344.240265 
	C494.584930,343.483856 496.736572,343.115295 498.820251,342.566406 
	C499.233551,343.210876 499.646820,343.855316 500.060120,344.499756 
	C496.923584,347.398468 493.987488,350.557343 490.617737,353.153351 
	C469.633514,369.319427 445.546051,378.364319 419.641235,382.207825 
	C396.413971,385.654053 373.030884,385.507050 349.782196,381.450012 
	C345.231262,380.655853 340.645935,380.058655 335.650269,379.357788 
z"/>
<path fill="#03157F" opacity="1.000000" stroke="none" 
	d="
M176.879654,142.863205 
	C157.247833,143.222534 137.970840,143.222534 118.399155,143.222534 
	C118.399155,124.024651 118.399155,105.152779 118.399155,85.955734 
	C137.795395,85.955734 157.026703,85.955734 177.234467,85.955734 
	C177.234467,104.850693 177.234467,123.677284 176.879654,142.863205 
z"/>
<path fill="#FA0304" opacity="1.000000" stroke="none" 
	d="
M172.280685,25.199394 
	C173.373688,26.232248 174.605682,27.219946 174.607666,28.210112 
	C174.632721,40.693260 174.289261,53.179539 174.470276,65.658775 
	C174.539551,70.434341 172.335464,71.852310 168.215286,71.853699 
	C156.221191,71.857742 144.226746,71.805527 132.233231,71.888756 
	C128.955429,71.911507 127.675484,70.186615 127.665810,67.297295 
	C127.623970,54.804073 127.657600,42.310535 127.690834,29.817183 
	C127.699898,26.409155 129.087631,24.969156 132.869202,25.043867 
	C145.857803,25.300476 158.854462,25.150433 172.280685,25.199394 
z"/>
<path fill="#031580" opacity="1.000000" stroke="none" 
	d="
M54.003555,91.920296 
	C67.434601,91.920296 80.865654,91.920296 94.545357,91.920296 
	C94.545357,105.580185 94.545357,119.091156 94.545357,132.771118 
	C80.610413,132.771118 67.030144,132.771118 53.550224,132.069351 
	C53.768230,118.218491 53.885895,105.069389 54.003555,91.920296 
z"/>
<path fill="#F7080A" opacity="1.000000" stroke="none" 
	d="
M102.899719,64.670532 
	C103.253510,67.994324 101.897034,68.940331 99.149635,68.903168 
	C91.494308,68.799599 83.835693,68.794426 76.180466,68.900795 
	C73.112869,68.943405 72.072601,67.576180 72.106758,64.670715 
	C72.194794,57.181484 72.205498,49.689613 72.103249,42.200760 
	C72.064293,39.348076 72.832184,37.985718 76.047012,38.070263 
	C83.698448,38.271484 91.361946,38.264793 99.013947,38.075035 
	C102.229683,37.995289 102.973946,39.379482 102.930779,42.231403 
	C102.819954,49.553497 102.897331,56.878448 102.899719,64.670532 
z"/>
<path fill="#F6090A" opacity="1.000000" stroke="none" 
	d="
M54.909225,65.751175 
	C55.429409,69.970322 53.887455,71.787964 50.011463,71.749123 
	C44.046261,71.689331 38.062897,72.026672 32.125702,71.625809 
	C30.718615,71.530800 28.398640,69.233963 28.319483,67.846092 
	C27.923025,60.894978 28.010616,53.904877 28.267107,46.940964 
	C28.302938,45.968140 30.186235,44.293140 31.261703,44.254284 
	C38.060268,44.008644 44.873135,44.198803 51.679256,44.102448 
	C54.451763,44.063198 54.968906,45.484989 54.931976,47.848049 
	C54.841187,53.657913 54.904552,59.470188 54.909225,65.751175 
z"/>
<path fill="#1B247D" opacity="1.000000" stroke="none" 
	d="
M821.849792,351.919098 
	C820.502258,351.202057 818.759155,350.794983 817.898438,349.696533 
	C816.552673,347.979065 815.804138,345.793640 814.022644,342.259125 
	C812.022095,354.386505 803.624512,351.142700 796.857971,352.305389 
	C796.646423,351.265320 796.633240,350.422577 796.299194,349.735870 
	C795.761353,348.630096 795.011780,347.627258 794.351685,346.580963 
	C793.340088,347.253082 792.033081,347.712097 791.368042,348.634155 
	C788.473816,352.646667 784.957642,353.438507 780.338379,350.752319 
	C780.326843,349.638855 780.624512,348.941620 780.922241,348.244385 
	C787.790588,349.268005 787.790588,349.268005 789.922546,342.268463 
	C788.834351,342.101990 787.773682,341.939728 786.746887,341.782684 
	C785.617798,334.431854 791.440796,331.998566 799.705566,333.255310 
	C800.032654,338.129669 800.362610,343.046753 800.672974,347.672089 
	C803.270386,347.893494 805.400452,348.075073 808.343689,348.325958 
	C808.951477,345.732697 809.644836,342.774109 810.485168,339.188293 
	C808.340088,340.182800 806.889160,340.855438 805.076904,341.695618 
	C804.138184,337.053375 806.203064,334.806122 809.643555,333.573639 
	C817.445984,330.778717 816.301575,338.933624 819.859192,342.076630 
	C820.294800,340.545776 820.688171,339.215485 821.051453,337.877014 
	C822.128296,333.909454 824.598755,332.066864 828.786011,332.620514 
	C830.916992,332.902252 833.104126,332.834137 835.202087,333.247742 
	C835.871460,333.379669 836.335693,334.552460 836.908691,335.681641 
	C836.923462,336.114319 836.938354,336.069214 836.938354,336.069214 
	C835.992188,336.790710 834.360046,337.398834 834.218750,338.253418 
	C833.612122,341.922577 833.592773,345.687775 833.009521,349.362457 
	C832.867371,350.258118 831.500305,351.406494 830.516907,351.622772 
	C828.794495,352.001678 826.933228,351.749207 824.583984,351.439972 
	C828.094543,347.037720 829.375122,341.942322 829.418213,336.394653 
	C825.828491,334.076477 824.941895,336.428253 824.365356,339.318481 
	C823.527466,343.518829 822.688354,347.718903 821.849792,351.919098 
z"/>
<path fill="#1C247D" opacity="1.000000" stroke="none" 
	d="
M895.991211,346.026611 
	C896.596619,346.973450 897.202026,347.920288 898.378601,349.760406 
	C899.138977,334.953644 902.215881,331.889709 914.531982,333.371399 
	C914.434204,335.352478 913.877808,336.857544 913.759216,337.178406 
	C911.105591,336.389618 909.119446,335.080353 907.656494,335.518341 
	C904.853394,336.357483 902.254944,343.325684 903.526917,346.323761 
	C904.105042,347.686646 905.966492,349.389313 907.271790,349.411469 
	C914.116760,349.527649 915.994202,348.176422 916.692566,342.984222 
	C917.130371,339.728943 917.060303,336.405396 917.218140,333.112457 
	C919.804138,333.112457 922.390076,333.112457 925.912231,333.112457 
	C921.301086,338.442963 920.435974,343.770142 921.017761,349.556702 
	C921.081665,350.192047 919.298950,351.653717 918.385681,351.642853 
	C912.400146,351.571869 906.419922,351.116882 900.433655,350.985931 
	C898.885315,350.952057 897.278259,352.022095 895.777588,351.858185 
	C894.462341,351.714539 893.258423,350.551453 892.249146,349.243469 
	C892.527832,348.108795 892.562744,347.569336 892.597656,347.029846 
	C892.439514,347.026855 892.281433,347.023865 892.123291,347.020844 
	C892.088379,347.666748 892.053467,348.312653 892.018555,348.958527 
	C890.649597,348.318451 889.280762,347.678345 887.515076,346.867493 
	C887.455872,345.867737 887.744995,345.014679 888.142090,344.215240 
	C888.794373,342.901825 890.206543,341.504639 890.010498,340.364166 
	C889.824036,339.279297 887.988220,338.477936 886.754822,337.449585 
	C886.795227,336.608704 886.862671,335.205231 886.930115,333.801758 
	C889.094727,333.428192 891.259338,333.054657 893.718079,333.231445 
	C893.657471,336.761780 893.302734,339.741730 892.862488,343.440277 
	C893.448792,344.371857 894.562317,346.141052 895.811829,348.126251 
	C895.883545,347.286682 895.937378,346.656647 895.991211,346.026611 
M890.705444,336.569702 
	C890.991028,336.296906 891.279297,336.026642 891.547058,335.737335 
	C891.553955,335.729889 891.336365,335.514679 891.223511,335.396362 
	C890.938049,335.669434 890.652527,335.942505 890.705444,336.569702 
z"/>
<path fill="#1D257D" opacity="1.000000" stroke="none" 
	d="
M579.820679,349.010071 
	C579.781677,349.606873 579.742737,350.203705 578.943420,350.898865 
	C575.862244,350.599640 573.541382,350.202026 571.220581,349.804413 
	C571.220581,349.804413 571.313782,349.575684 571.765137,349.575317 
	C573.130432,348.684174 574.044312,347.793396 574.958130,346.902649 
	C574.958130,346.902618 574.961243,346.432678 575.441711,346.109131 
	C576.214600,343.308990 576.506958,340.832458 576.799316,338.355896 
	C576.562195,338.196045 576.503845,337.986267 576.786987,337.256287 
	C576.609009,335.838257 576.268311,334.890503 575.927673,333.942719 
	C575.927673,333.942719 575.986145,334.003052 576.407959,333.995056 
	C579.210571,333.995331 581.591309,334.003571 583.972107,334.011841 
	C583.972107,334.011841 584.005676,334.006134 583.962952,334.216675 
	C583.920227,334.427216 583.855896,334.821075 583.531067,334.879211 
	C582.344543,335.259674 581.482849,335.582031 580.347656,336.006683 
	C583.106812,337.599487 583.106812,337.599487 584.533081,335.124908 
	C585.569214,334.741974 586.288574,334.388153 587.007874,334.034302 
	C591.171387,334.177887 595.334900,334.321503 599.784668,335.138794 
	C599.267822,338.312134 598.464722,340.811829 597.461182,343.935242 
	C597.830444,344.706848 598.536011,346.181366 599.241577,347.655884 
	C599.447266,347.373962 599.652954,347.092041 599.858643,346.810120 
	C601.017212,347.485077 602.175720,348.160034 603.062195,348.972839 
	C602.527893,349.638672 602.265686,350.166656 602.003479,350.694641 
	C595.689514,354.163574 595.011658,348.356964 592.531067,344.598328 
	C591.797974,347.189880 591.814636,350.507751 590.395447,351.321442 
	C588.478699,352.420471 585.458252,351.594482 582.360352,350.972229 
	C587.623230,347.929749 588.511902,343.395691 588.192810,338.093475 
	C586.059570,339.081848 584.655029,344.135651 581.104065,339.279541 
	C580.306213,340.493317 580.146973,341.735596 579.987732,342.977905 
	C579.987732,342.977905 580.003662,342.993561 579.720825,343.242493 
	C579.332458,344.460022 579.226990,345.428650 579.121521,346.397278 
	C578.986816,346.773438 578.852112,347.149628 578.378296,347.836700 
	C578.632935,348.435089 579.226807,348.722565 579.820679,349.010071 
z"/>
<path fill="#111F72" opacity="1.000000" stroke="none" 
	d="
M924.197693,284.653992 
	C924.634155,281.889954 925.218323,278.856659 926.028503,275.885040 
	C930.196594,260.597839 928.905212,244.959320 928.962769,229.429459 
	C929.090393,194.976273 929.002991,160.522278 928.999512,125.609665 
	C929.519897,126.104523 930.504150,127.059288 930.502197,128.012009 
	C930.410095,172.272415 930.499939,216.536804 929.815369,260.789062 
	C929.693115,268.689575 926.321106,276.539764 924.197693,284.653992 
z"/>
<path fill="#19237B" opacity="1.000000" stroke="none" 
	d="
M677.121521,337.027130 
	C679.251587,333.718292 682.829712,331.746857 685.934509,333.549042 
	C688.537048,335.059692 689.747925,338.968079 691.601929,341.856873 
	C694.914062,332.336243 695.409119,331.919586 701.784912,333.381042 
	C701.692444,333.826599 701.683105,334.626495 701.494385,334.671387 
	C695.448059,336.108246 696.021790,341.210754 695.358887,345.629211 
	C695.212830,346.602356 695.249329,347.676239 694.829529,348.518127 
	C694.161621,349.857574 693.180969,351.041077 692.332642,352.290558 
	C691.424072,351.265900 690.369080,350.334808 689.640747,349.194977 
	C688.510620,347.426270 687.603027,345.515350 686.278381,343.068604 
	C684.025330,348.638458 681.857483,353.738464 674.366028,350.641266 
	C673.956909,349.042725 673.981812,348.003387 674.006714,346.982910 
	C674.006653,347.001801 673.968933,347.002045 674.168945,347.356628 
	C676.062927,348.005249 677.756836,348.299255 680.307983,348.742065 
	C680.959106,345.475861 681.631653,342.102020 682.410583,338.194702 
	C680.285339,339.664703 678.993103,340.558533 676.885620,342.016296 
	C677.002441,339.545502 677.062012,338.286316 677.121521,337.027130 
z"/>
<path fill="#1A237C" opacity="1.000000" stroke="none" 
	d="
M943.074036,337.011749 
	C945.093201,333.888519 948.402832,331.908783 951.481995,333.463226 
	C953.999451,334.734100 955.372864,338.271210 957.430115,341.041473 
	C958.528992,338.773529 959.114502,336.125854 960.749084,334.607117 
	C962.302185,333.164001 964.952271,332.901520 968.074707,331.775757 
	C967.626648,333.736359 967.572876,334.783386 967.351990,334.819946 
	C961.336304,335.814880 962.400879,340.930542 961.307312,344.866791 
	C960.603149,347.401703 959.432678,349.807129 958.471191,352.270599 
	C956.966553,350.270416 955.431152,348.292328 953.972717,346.259033 
	C953.408325,345.472290 953.018250,344.560577 952.229370,343.124390 
	C950.004761,348.543060 947.881165,353.766571 940.356384,350.733154 
	C940.381958,344.836914 943.764526,349.331360 946.461792,348.293304 
	C947.080505,345.338562 947.793823,341.932159 948.653625,337.825806 
	C946.499451,339.411987 945.110779,340.434479 943.074036,341.934174 
	C943.074036,339.556061 943.074036,338.283905 943.074036,337.011749 
z"/>
<path fill="#1D257D" opacity="1.000000" stroke="none" 
	d="
M651.223267,333.110779 
	C653.819519,333.110779 656.415771,333.110779 659.682739,333.110779 
	C655.892273,338.616028 654.058777,343.714783 655.135986,349.634918 
	C655.224854,350.123352 653.080261,351.494171 651.868530,351.652649 
	C648.449219,352.099701 644.972717,352.091919 641.523376,352.330170 
	C634.592651,352.808929 631.729736,349.624084 632.900513,342.638306 
	C633.119690,341.330658 633.467102,340.044525 633.606689,338.359802 
	C633.458069,337.971130 633.440491,338.064819 633.888550,337.977295 
	C634.562439,336.909485 634.788330,335.929199 635.005005,334.969299 
	C634.995789,334.989716 634.985779,335.033295 634.985779,335.033295 
	C639.355164,334.317169 643.724487,333.601044 648.550659,333.359314 
	C648.466187,335.355988 647.924866,336.878204 647.389099,338.384766 
	C645.572144,336.824341 643.985168,334.671661 643.175903,334.932465 
	C641.540161,335.459534 640.221130,337.205261 638.984009,338.632751 
	C638.381165,339.328430 638.156494,340.414825 637.933044,341.364960 
	C637.198059,344.489227 636.355591,347.927643 640.294861,349.415955 
	C644.181458,350.884308 650.092529,347.692505 650.577393,344.020874 
	C651.053223,340.418579 651.028381,336.750183 651.223267,333.110779 
z"/>
<path fill="#182179" opacity="1.000000" stroke="none" 
	d="
M729.820801,368.570740 
	C729.614136,373.485504 726.179688,378.027924 729.748779,382.564178 
	C718.955505,387.063599 714.116150,384.380157 713.886902,373.420166 
	C712.735596,373.420166 711.569885,373.420166 710.412659,373.420166 
	C709.341797,367.028168 713.230408,364.075134 720.711609,365.814972 
	C720.075745,370.716461 719.434692,375.657990 718.793701,380.599548 
	C719.425659,380.866730 720.057617,381.133911 720.689575,381.401093 
	C721.711243,379.711517 723.122864,378.137634 723.666138,376.306122 
	C724.553711,373.314362 724.614624,370.070862 725.567932,367.108490 
	C725.934326,365.969910 727.789856,365.310547 728.966858,364.432831 
	C729.279541,365.687042 729.592224,366.941284 729.820801,368.570740 
z"/>
<path fill="#1E257C" opacity="1.000000" stroke="none" 
	d="
M566.364502,333.147186 
	C570.730774,333.661774 572.242126,336.670319 572.152283,339.863220 
	C572.022522,344.474548 570.351562,349.161682 565.466492,350.523132 
	C561.026611,351.760529 556.195557,351.594391 551.620178,352.038879 
	C553.662048,347.843719 555.291870,344.495178 557.464966,340.030487 
	C554.275879,340.667419 552.928345,340.936584 551.051208,341.311493 
	C551.004028,336.742401 552.985352,334.122620 557.005005,333.457611 
	C559.920776,332.975250 562.957336,333.223480 566.364502,333.147186 
M559.988464,346.166351 
	C560.413635,347.138214 560.944519,348.986664 561.248108,348.950043 
	C565.574219,348.428528 566.572815,344.931702 567.068848,341.480774 
	C567.517334,338.360413 566.957886,335.404724 562.282166,335.357605 
	C561.602051,338.709900 560.921997,342.062012 559.988464,346.166351 
z"/>
<path fill="#1F267C" opacity="1.000000" stroke="none" 
	d="
M746.782532,372.387878 
	C745.504700,372.387665 744.431580,372.695190 743.386841,372.994537 
	C740.740784,366.448761 748.708313,363.729919 755.198303,364.931000 
	C757.628296,370.385315 753.639404,377.431091 760.174133,382.744568 
	C757.500244,383.304688 755.445129,383.735199 753.188965,384.207794 
	C752.739929,382.855560 752.544006,381.894775 752.110107,381.057251 
	C751.621216,380.113708 750.871826,378.527344 750.317932,378.561310 
	C749.248718,378.626801 747.836426,379.384857 747.270447,380.294037 
	C744.658081,384.490356 741.130432,384.580841 736.311035,383.063934 
	C737.233154,381.877594 738.078674,380.321503 738.416016,380.424774 
	C745.693970,382.653992 745.067688,376.272064 746.782532,372.387878 
z"/>
<path fill="#1C247D" opacity="1.000000" stroke="none" 
	d="
M725.255798,341.725677 
	C724.357483,347.538727 721.725708,350.737549 716.374817,351.415863 
	C712.685730,351.883514 708.889526,351.505646 705.500732,351.505646 
	C707.505798,347.185608 709.482117,342.927551 711.458374,338.669495 
	C711.068970,338.485840 710.679504,338.302216 710.290039,338.118561 
	C708.718445,339.294525 707.146851,340.470490 704.713684,342.291107 
	C704.781677,337.412506 706.050049,334.869354 709.483826,333.700989 
	C714.634644,331.948425 722.384460,333.312317 724.935913,337.221222 
	C725.070618,339.275757 725.163208,340.500732 725.255798,341.725677 
M712.606873,348.494965 
	C717.577881,349.166107 719.479797,347.694580 720.596375,342.313477 
	C721.443848,338.228882 720.320496,336.484406 716.107117,335.389160 
	C715.019958,339.522644 713.932556,343.656738 712.606873,348.494965 
z"/>
<path fill="#1F267E" opacity="1.000000" stroke="none" 
	d="
M725.555054,341.545776 
	C725.163208,340.500732 725.070618,339.275757 724.969971,337.593445 
	C725.250000,337.276581 725.754639,337.585846 725.795349,337.533600 
	C730.342285,331.698364 736.648804,333.255585 743.452942,333.217377 
	C742.902649,335.227539 742.478638,336.776276 741.923096,338.805695 
	C740.236084,337.477631 739.157471,336.628601 737.549133,335.362488 
	C737.077271,337.381989 736.733643,338.852661 736.350891,340.490784 
	C737.778931,340.886597 738.964111,341.215118 740.604004,341.669678 
	C738.195679,343.636230 736.160583,345.297943 734.125549,346.959656 
	C734.379272,347.544250 734.632935,348.128845 734.886597,348.713440 
	C736.933777,348.493134 738.980896,348.272827 741.018066,348.053589 
	C740.060486,352.744385 732.127808,354.225922 727.345703,351.193573 
	C729.045715,347.638550 730.720886,344.135315 732.729553,339.934784 
	C729.410217,340.625702 727.632263,340.995789 725.555054,341.545776 
z"/>
<path fill="#17217A" opacity="1.000000" stroke="none" 
	d="
M669.375671,351.621796 
	C665.798523,352.513428 661.266296,353.845123 659.690674,349.792480 
	C658.371948,346.400726 658.520996,341.550842 659.982300,338.203094 
	C661.601746,334.492920 665.361450,331.666870 668.388916,328.656738 
	C669.142151,327.907837 670.664856,327.932892 673.116272,327.239441 
	C671.581238,329.521271 670.812195,330.664490 670.173584,331.613739 
	C671.640747,333.215973 673.124573,334.836395 674.832520,337.158936 
	C674.694153,340.908020 674.331543,343.955048 673.968933,347.002045 
	C673.968933,347.002045 674.006653,347.001801 673.685730,346.976837 
	C672.663025,348.006287 671.961182,349.060669 671.259399,350.115082 
	C671.259399,350.115082 671.106506,350.110352 670.843506,350.276001 
	C670.178955,350.835052 669.777344,351.228424 669.375671,351.621796 
M662.469971,345.261627 
	C663.465881,346.750336 664.461792,348.239044 665.457703,349.727753 
	C666.685974,348.355225 668.450500,347.171692 669.016541,345.565735 
	C669.859009,343.175568 670.031128,340.493042 670.118713,337.922302 
	C670.150696,336.982452 669.147278,335.227905 668.579529,335.212708 
	C667.469788,335.182953 665.756775,335.827606 665.319580,336.704590 
	C664.093079,339.164825 663.388367,341.885193 662.469971,345.261627 
z"/>
<path fill="#242A7F" opacity="1.000000" stroke="none" 
	d="
M755.033325,333.649506 
	C757.567810,333.453888 759.799500,332.809631 761.785828,333.256409 
	C763.912659,333.734833 767.451599,335.225098 767.461914,336.301697 
	C767.483337,338.526520 766.053650,341.292969 764.335693,342.876526 
	C762.060059,344.974243 756.663574,344.592590 759.556091,350.137421 
	C759.623108,350.265961 758.211792,351.587891 757.427002,351.659088 
	C755.096863,351.870667 752.735229,351.734894 750.539124,351.734894 
	C752.660522,347.975769 754.364441,344.956299 756.609009,340.978882 
	C753.403870,340.978882 751.849121,340.978882 750.294434,340.978882 
	C749.963196,340.590210 749.631897,340.201538 749.300598,339.812897 
	C751.074585,337.768951 752.848572,335.725006 755.033325,333.649506 
z"/>
<path fill="#162079" opacity="1.000000" stroke="none" 
	d="
M936.227722,351.091797 
	C932.384827,352.382141 928.480408,353.847076 925.317444,349.800446 
	C923.071655,346.927216 923.567505,340.449158 926.548401,336.659760 
	C928.696350,333.929291 931.164368,331.412445 933.739197,329.075195 
	C934.735535,328.170746 936.419739,328.023987 938.353699,328.491241 
	C937.521973,329.617432 936.690308,330.743591 936.085449,331.562714 
	C937.590698,333.210907 939.078064,334.839539 940.801147,337.158508 
	C939.931824,341.775055 938.826782,345.701233 937.721680,349.627380 
	C937.721680,349.627380 937.934692,349.819611 937.558594,349.827087 
	C936.864258,350.253632 936.546021,350.672699 936.227722,351.091797 
M934.225403,347.461517 
	C936.366577,343.374115 937.650330,339.264038 934.742920,334.977509 
	C930.228149,336.424896 927.588928,341.351990 928.591187,346.408295 
	C929.295410,349.961243 930.910217,351.213867 934.225403,347.461517 
z"/>
<path fill="#20277D" opacity="1.000000" stroke="none" 
	d="
M793.244751,372.305908 
	C790.194519,373.588959 788.656921,372.436401 790.250732,369.563141 
	C791.306213,367.660522 793.713867,365.769409 795.811279,365.350281 
	C799.270935,364.658997 802.969360,365.162598 807.229065,365.162598 
	C806.661987,367.041260 806.267517,368.347839 805.739807,370.096008 
	C804.097778,369.147217 802.923462,368.468689 801.749084,367.790131 
	C801.301880,368.060364 800.854675,368.330566 800.407410,368.600769 
	C801.067383,369.970215 801.656921,371.381348 802.429016,372.684387 
	C802.669312,373.089844 803.403992,373.202423 804.498779,373.733612 
	C802.336975,375.212860 800.308899,375.995880 799.276794,377.474182 
	C798.208801,379.003967 798.364868,381.329987 797.532410,383.093933 
	C795.482117,387.438782 793.724915,387.953857 786.169617,386.769318 
	C786.763916,385.930969 787.144836,384.778931 787.728638,384.664825 
	C793.860901,383.466095 795.573853,380.532715 794.367310,373.242279 
	C795.010864,371.879700 795.217651,370.996460 795.424438,370.113220 
	C795.146057,370.027344 794.867737,369.941467 794.589417,369.855591 
	C794.141174,370.672363 793.692993,371.489136 793.244751,372.305908 
z"/>
<path fill="#1E257D" opacity="1.000000" stroke="none" 
	d="
M602.295959,350.946198 
	C602.265686,350.166656 602.527893,349.638672 603.409790,348.923523 
	C605.599426,344.995941 607.169373,341.255524 608.739319,337.515137 
	C608.310059,337.355865 607.880859,337.196625 607.451599,337.037354 
	C605.995117,338.667908 604.538574,340.298462 603.082092,341.929016 
	C602.664917,341.704559 602.247742,341.480103 601.830566,341.255646 
	C601.917908,339.849945 602.005249,338.444214 602.092590,337.038483 
	C606.047241,331.485931 611.908020,333.387329 617.198303,333.425720 
	C617.556335,333.428284 617.893372,336.330292 618.240234,337.883789 
	C617.765320,338.003510 617.290466,338.123230 616.815613,338.242981 
	C615.748291,337.408417 614.680969,336.573883 613.211975,335.425293 
	C612.716980,337.207520 612.333740,338.587555 611.858704,340.297852 
	C613.237244,340.856110 614.461853,341.352020 615.803772,341.895477 
	C613.630432,343.844910 611.704834,345.572083 609.779297,347.299286 
	C610.053101,347.825531 610.326904,348.351776 610.600708,348.878021 
	C612.606323,348.580383 614.611938,348.282745 616.806213,347.957123 
	C614.934143,352.770844 609.233948,353.936188 602.295959,350.946198 
z"/>
<path fill="#1E2780" opacity="1.000000" stroke="none" 
	d="
M865.005127,335.984467 
	C868.306885,334.862732 871.567810,333.583221 874.934692,332.713715 
	C875.970398,332.446259 878.278625,333.225220 878.310913,333.652954 
	C878.426025,335.176758 877.812073,336.755615 877.330627,338.975006 
	C873.122131,333.524658 870.695557,333.839905 868.505249,339.426147 
	C867.743652,341.368256 867.309326,343.641144 867.510315,345.685852 
	C867.641052,347.015472 869.164124,349.255402 870.107056,349.278107 
	C874.362976,349.380554 878.635315,348.848572 882.897766,348.496918 
	C883.129028,348.477783 883.324219,348.021240 883.833557,347.846252 
	C884.571838,348.724915 885.012878,349.525635 885.453857,350.326355 
	C885.453857,350.326355 885.432922,350.127808 885.115601,350.241821 
	C884.564819,350.664764 884.331299,350.973694 884.097778,351.282593 
	C883.708191,351.567841 883.323364,352.094055 882.928345,352.101837 
	C877.832031,352.201691 872.652283,352.764954 867.677612,352.005615 
	C865.711182,351.705444 862.955200,348.531342 862.770569,346.467926 
	C862.485779,343.284180 864.103455,339.930176 864.961792,336.290833 
	C865.009460,335.933228 865.005127,335.984467 865.005127,335.984467 
z"/>
<path fill="#21297E" opacity="1.000000" stroke="none" 
	d="
M767.231018,373.572510 
	C765.318237,370.057251 767.174133,366.323639 771.378967,365.396790 
	C776.459412,364.276978 781.632507,363.577606 786.611816,362.722656 
	C786.348450,366.210144 785.509766,366.941223 778.533691,368.380463 
	C778.183838,372.600067 777.918762,377.116821 777.331238,381.591278 
	C777.232483,382.343201 775.794250,383.363342 774.878540,383.475891 
	C772.645447,383.750427 770.355774,383.565338 768.818298,383.565338 
	C770.862976,378.525452 772.836426,373.660919 774.809937,368.796387 
	C774.227478,368.422821 773.644958,368.049225 773.062439,367.675659 
	C771.229431,369.637512 769.396423,371.599396 767.231018,373.572510 
z"/>
<path fill="#15207C" opacity="1.000000" stroke="none" 
	d="
M780.710938,348.011230 
	C780.624512,348.941620 780.326843,349.638855 780.010315,350.621643 
	C774.987976,353.396332 770.089600,352.764740 764.677002,350.385925 
	C770.175232,348.405334 769.990173,343.923431 770.607666,339.705048 
	C771.432678,334.069550 774.451843,332.187103 781.204529,333.257721 
	C780.907959,334.881897 780.613831,336.492615 780.187805,338.825989 
	C778.607422,337.589996 777.692322,336.874359 776.285889,335.774414 
	C775.338318,340.078552 774.446350,344.130432 773.387878,348.938538 
	C776.129517,348.491150 778.314636,348.134583 780.710938,348.011230 
z"/>
<path fill="#EDEDF7" opacity="1.000000" stroke="none" 
	d="
M916.816650,333.083069 
	C917.060303,336.405396 917.130371,339.728943 916.692566,342.984222 
	C915.994202,348.176422 914.116760,349.527649 907.271790,349.411469 
	C905.966492,349.389313 904.105042,347.686646 903.526917,346.323761 
	C902.254944,343.325684 904.853394,336.357483 907.656494,335.518341 
	C909.119446,335.080353 911.105591,336.389618 913.759216,337.178406 
	C913.877808,336.857544 914.434204,335.352478 914.898071,333.466248 
	C915.342102,333.074585 915.878662,333.064117 916.816650,333.083069 
z"/>
<path fill="#1B267E" opacity="1.000000" stroke="none" 
	d="
M633.440491,338.064819 
	C633.440491,338.064819 633.458069,337.971130 633.499023,337.945526 
	C632.677856,337.701904 631.284363,337.740143 631.036377,337.225983 
	C628.706421,332.394165 626.613892,335.288940 624.931335,337.517914 
	C623.882507,338.907318 623.381836,340.821716 622.995911,342.579712 
	C621.781067,348.114044 623.680176,349.937531 629.152100,348.749512 
	C629.880859,348.591309 630.673645,348.727814 631.436768,348.727814 
	C631.619019,349.237305 631.801331,349.746796 631.983643,350.256287 
	C630.022583,350.946014 627.989075,352.343994 626.118225,352.152435 
	C623.579163,351.892517 620.327698,351.095551 618.879639,349.312500 
	C616.271118,346.100555 617.881165,339.100037 621.253540,335.491486 
	C624.662842,331.843414 629.016479,332.304169 633.338562,333.073303 
	C633.759033,333.148132 634.023865,334.097107 634.673340,334.836792 
	C634.985779,335.033295 634.995789,334.989716 634.630432,335.051086 
	C633.990234,336.096619 633.715393,337.080719 633.440491,338.064819 
z"/>
<path fill="#EEEEF7" opacity="1.000000" stroke="none" 
	d="
M650.825073,333.080597 
	C651.028381,336.750183 651.053223,340.418579 650.577393,344.020874 
	C650.092529,347.692505 644.181458,350.884308 640.294861,349.415955 
	C636.355591,347.927643 637.198059,344.489227 637.933044,341.364960 
	C638.156494,340.414825 638.381165,339.328430 638.984009,338.632751 
	C640.221130,337.205261 641.540161,335.459534 643.175903,334.932465 
	C643.985168,334.671661 645.572144,336.824341 647.389099,338.384766 
	C647.924866,336.878204 648.466187,335.355988 648.918701,333.453369 
	C649.362183,333.065460 649.894531,333.057953 650.825073,333.080597 
z"/>
<path fill="#20277D" opacity="1.000000" stroke="none" 
	d="
M836.897278,336.116394 
	C838.512573,335.366211 840.154114,334.613953 842.507629,333.916077 
	C844.922058,334.125305 846.650391,334.146637 848.320129,334.470093 
	C850.241699,334.842316 852.111633,335.481598 854.003967,336.004883 
	C852.483887,341.195465 850.799194,335.511169 848.606384,336.284790 
	C848.274231,337.410034 847.835571,338.895966 847.402344,340.363586 
	C848.685608,340.933350 849.807007,341.431213 849.932373,341.486877 
	C848.320984,344.398560 847.010681,347.135834 845.340149,349.631958 
	C844.479248,350.918365 842.977234,351.775696 841.764954,352.826874 
	C841.413879,352.505219 841.062805,352.183563 840.711731,351.861908 
	C841.034546,349.630280 841.629211,347.392639 841.580139,345.169189 
	C841.549744,343.791870 840.553528,341.262604 839.970398,341.256683 
	C835.396484,341.210022 837.786499,338.296387 837.334473,336.239807 
	C836.938354,336.069214 836.923462,336.114319 836.897278,336.116394 
z"/>
<path fill="#272C81" opacity="1.000000" stroke="none" 
	d="
M854.433838,335.940674 
	C852.111633,335.481598 850.241699,334.842316 848.320129,334.470093 
	C846.650391,334.146637 844.922058,334.125305 842.856201,333.907745 
	C849.225952,333.608154 855.958618,333.317627 862.693665,333.244324 
	C863.190125,333.238892 863.703674,334.799225 864.607178,335.808044 
	C865.005127,335.984467 865.009460,335.933228 865.038635,335.933746 
	C863.827209,336.402191 861.659668,336.663116 861.501160,337.372742 
	C860.672546,341.082764 860.433228,344.919861 859.807373,348.682587 
	C859.628723,349.756470 858.951904,351.521942 858.317078,351.608826 
	C855.822693,351.950287 853.253967,351.748657 851.563782,351.748657 
	C853.264587,346.840546 854.814941,342.626587 856.113464,338.336456 
	C856.305847,337.700775 855.309937,336.705414 854.433838,335.940674 
z"/>
<path fill="#061568" opacity="1.000000" stroke="none" 
	d="
M773.563232,125.251480 
	C773.998352,168.905502 774.001892,212.643188 773.986267,256.380890 
	C773.985657,258.030884 773.800720,259.680847 773.448669,261.656860 
	C773.074097,249.848099 772.867371,237.713409 772.847473,225.578400 
	C772.795105,193.646194 772.819702,161.713882 772.833374,129.781601 
	C772.833984,128.299423 773.025635,126.817314 773.563232,125.251480 
z"/>
<path fill="#0B155B" opacity="1.000000" stroke="none" 
	d="
M884.600342,125.277298 
	C885.017334,165.618256 885.018372,206.071960 884.986084,246.525635 
	C884.984497,248.496017 884.690369,250.466187 884.210571,252.701843 
	C883.985107,210.441513 884.081482,167.915771 884.600342,125.277298 
z"/>
<path fill="#08146A" opacity="1.000000" stroke="none" 
	d="
M256.583008,196.171371 
	C257.006195,234.064865 257.003235,272.097107 256.999146,310.603210 
	C256.549072,309.847290 255.710403,308.618225 255.707993,307.387543 
	C255.637741,271.497986 255.646271,235.608246 255.671997,199.718552 
	C255.672806,198.582291 255.988144,197.446243 256.583008,196.171371 
z"/>
<path fill="#06166C" opacity="1.000000" stroke="none" 
	d="
M507.552032,213.027435 
	C508.016083,244.048782 508.028503,275.171326 508.070190,306.779053 
	C507.612274,306.407379 506.700928,305.551422 506.699158,304.693665 
	C506.637634,274.640808 506.659729,244.587784 506.691345,214.534805 
	C506.691833,214.065933 506.958160,213.597336 507.552032,213.027435 
z"/>
<path fill="#E1E3F6" opacity="1.000000" stroke="none" 
	d="
M601.841675,336.886047 
	C602.005249,338.444214 601.917908,339.849945 601.830566,341.255646 
	C602.247742,341.480103 602.664917,341.704559 603.082092,341.929016 
	C604.538574,340.298462 605.995117,338.667908 607.451599,337.037354 
	C607.880859,337.196625 608.310059,337.355865 608.739319,337.515137 
	C607.169373,341.255524 605.599426,344.995941 603.681885,348.785645 
	C602.175720,348.160034 601.017212,347.485077 599.858643,346.810120 
	C599.652954,347.092041 599.447266,347.373962 599.241577,347.655884 
	C598.536011,346.181366 597.830444,344.706848 597.461182,343.935242 
	C598.464722,340.811829 599.267822,338.312134 600.058289,335.408813 
	C600.560730,335.581268 601.075745,336.157440 601.841675,336.886047 
z"/>
<path fill="#DDDDF1" opacity="1.000000" stroke="none" 
	d="
M822.258179,351.932312 
	C822.688354,347.718903 823.527466,343.518829 824.365356,339.318481 
	C824.941895,336.428253 825.828491,334.076477 829.418213,336.394653 
	C829.375122,341.942322 828.094543,347.037720 824.166077,351.470947 
	C823.751709,351.863953 823.209167,351.904755 822.258179,351.932312 
z"/>
<path fill="#D9DAF1" opacity="1.000000" stroke="none" 
	d="
M938.005981,349.814789 
	C938.826782,345.701233 939.931824,341.775055 941.020813,337.422516 
	C941.464539,337.002625 941.924377,337.009125 942.729126,337.013672 
	C943.074036,338.283905 943.074036,339.556061 943.074036,341.934174 
	C945.110779,340.434479 946.499451,339.411987 948.653625,337.825806 
	C947.793823,341.932159 947.080505,345.338562 946.461792,348.293304 
	C943.764526,349.331360 940.381958,344.836914 940.003113,350.606262 
	C939.483398,350.638123 938.886841,350.320160 938.005981,349.814789 
z"/>
<path fill="#06156A" opacity="1.000000" stroke="none" 
	d="
M313.547913,262.410583 
	C313.094055,261.140015 312.081635,259.418457 312.072052,257.691284 
	C311.959595,237.438660 311.997650,217.185196 311.994995,196.462936 
	C312.449768,197.535934 313.293610,199.075684 313.302612,200.620300 
	C313.421936,221.065475 313.423920,241.511322 313.547913,262.410583 
z"/>
<path fill="#1A227B" opacity="1.000000" stroke="none" 
	d="
M885.706848,350.187805 
	C885.012878,349.525635 884.571838,348.724915 884.093811,347.582214 
	C885.122314,345.109680 886.187866,342.979156 887.631409,340.092896 
	C885.319092,340.667908 883.876892,341.026520 882.434753,341.385132 
	C882.021423,341.038635 881.608154,340.692139 881.194885,340.345612 
	C882.870850,338.170410 884.546875,335.995209 886.576538,333.810852 
	C886.862671,335.205231 886.795227,336.608704 886.754822,337.449585 
	C887.988220,338.477936 889.824036,339.279297 890.010498,340.364166 
	C890.206543,341.504639 888.794373,342.901825 888.142090,344.215240 
	C887.744995,345.014679 887.455872,345.867737 887.172180,347.094604 
	C886.804016,348.344727 886.381897,349.196991 885.706848,350.187805 
z"/>
<path fill="#D9DAF1" opacity="1.000000" stroke="none" 
	d="
M674.168945,347.356628 
	C674.331543,343.955048 674.694153,340.908020 675.046082,337.426178 
	C675.498901,337.002625 675.962341,337.013947 676.773682,337.026184 
	C677.062012,338.286316 677.002441,339.545502 676.885620,342.016296 
	C678.993103,340.558533 680.285339,339.664703 682.410583,338.194702 
	C681.631653,342.102020 680.959106,345.475861 680.307983,348.742065 
	C677.756836,348.299255 676.062927,348.005249 674.168945,347.356628 
z"/>
<path fill="#061568" opacity="1.000000" stroke="none" 
	d="
M564.078125,306.549988 
	C563.620789,306.557190 563.146667,306.136902 563.146362,305.716278 
	C563.137024,291.233551 563.169373,276.750824 563.225586,262.268158 
	C563.226624,262.001038 563.587646,261.735260 564.187378,261.313293 
	C564.490234,276.145966 564.386230,291.134155 564.078125,306.549988 
z"/>
<path fill="#06156A" opacity="1.000000" stroke="none" 
	d="
M53.553108,92.024757 
	C53.885895,105.069389 53.768230,118.218491 53.373940,131.676239 
	C53.099094,118.699669 53.100876,105.414444 53.553108,92.024757 
z"/>
<path fill="#1A227B" opacity="1.000000" stroke="none" 
	d="
M896.005005,345.562592 
	C895.937378,346.656647 895.883545,347.286682 895.811829,348.126251 
	C894.562317,346.141052 893.448792,344.371857 892.862488,343.440277 
	C893.302734,339.741730 893.657471,336.761780 894.024658,333.337311 
	C894.565308,335.175903 895.195374,337.441650 895.588379,339.747742 
	C895.887756,341.504791 895.886414,343.313080 896.005005,345.562592 
z"/>
<path fill="#272B7F" opacity="1.000000" stroke="none" 
	d="
M576.521240,338.640686 
	C576.506958,340.832458 576.214600,343.308990 575.541626,345.896423 
	C575.521729,343.646729 575.882446,341.286102 576.521240,338.640686 
z"/>
<path fill="#272B7F" opacity="1.000000" stroke="none" 
	d="
M570.981934,350.099182 
	C573.541382,350.202026 575.862244,350.599640 578.630249,351.015625 
	C576.299377,350.820679 573.521362,350.607330 570.981934,350.099182 
z"/>
<path fill="#272B7F" opacity="1.000000" stroke="none" 
	d="
M583.785889,333.657288 
	C581.591309,334.003571 579.210571,333.995331 576.383423,333.963013 
	C578.491333,333.726868 581.045471,333.514801 583.785889,333.657288 
z"/>
<path fill="#D9DAF1" opacity="1.000000" stroke="none" 
	d="
M671.557739,350.141541 
	C671.961182,349.060669 672.663025,348.006287 673.685791,346.957947 
	C673.981812,348.003387 673.956909,349.042725 674.012695,350.516846 
	C673.347717,350.690399 672.601868,350.429169 671.557739,350.141541 
z"/>
<path fill="#272B7F" opacity="1.000000" stroke="none" 
	d="
M580.144409,342.672852 
	C580.146973,341.735596 580.306213,340.493317 580.753784,339.131226 
	C580.795044,340.130249 580.548096,341.248993 580.144409,342.672852 
z"/>
<path fill="#272B7F" opacity="1.000000" stroke="none" 
	d="
M574.709229,347.093506 
	C574.044312,347.793396 573.130432,348.684174 571.862915,349.499847 
	C572.492920,348.711304 573.476624,347.997833 574.709229,347.093506 
z"/>
<path fill="#111F72" opacity="1.000000" stroke="none" 
	d="
M920.271973,291.841187 
	C920.433105,291.036438 920.860352,290.067871 921.630188,289.042175 
	C921.494507,289.882477 921.016296,290.779907 920.271973,291.841187 
z"/>
<path fill="#272B7F" opacity="1.000000" stroke="none" 
	d="
M575.631531,334.065948 
	C576.268311,334.890503 576.609009,335.838257 576.944397,337.173157 
	C576.404541,336.436584 575.869995,335.312866 575.631531,334.065948 
z"/>
<path fill="#272B7F" opacity="1.000000" stroke="none" 
	d="
M586.615234,334.067444 
	C586.288574,334.388153 585.569214,334.741974 584.437012,335.048157 
	C584.024109,335.000488 583.855896,334.821075 583.855896,334.821075 
	C583.855896,334.821075 583.920227,334.427216 583.952271,334.230255 
	C584.730347,334.055725 585.476440,334.078156 586.615234,334.067444 
z"/>
<path fill="#272B7F" opacity="1.000000" stroke="none" 
	d="
M579.276062,346.072632 
	C579.226990,345.428650 579.332458,344.460022 579.710571,343.244934 
	C579.799072,343.914978 579.614868,344.831512 579.276062,346.072632 
z"/>
<path fill="#272B7F" opacity="1.000000" stroke="none" 
	d="
M579.711548,348.727356 
	C579.226807,348.722565 578.632935,348.435089 578.260010,348.118286 
	C578.854797,348.207520 579.228638,348.326050 579.711548,348.727356 
z"/>
<path fill="#D9DAF1" opacity="1.000000" stroke="none" 
	d="
M936.523926,351.059021 
	C936.546021,350.672699 936.864258,350.253632 937.437561,349.750122 
	C937.401794,350.119202 937.110962,350.572723 936.523926,351.059021 
z"/>
<path fill="#D9DAF1" opacity="1.000000" stroke="none" 
	d="
M669.697021,351.661926 
	C669.777344,351.228424 670.178955,350.835052 670.848999,350.352295 
	C670.751099,350.742615 670.384705,351.222321 669.697021,351.661926 
z"/>
<path fill="#111F72" opacity="1.000000" stroke="none" 
	d="
M922.206665,288.781525 
	C922.145813,288.418640 922.311462,287.872437 922.716187,287.157166 
	C922.781250,287.524811 922.607117,288.061523 922.206665,288.781525 
z"/>
<path fill="#1A227B" opacity="1.000000" stroke="none" 
	d="
M884.383911,351.230774 
	C884.331299,350.973694 884.564819,350.664764 885.101929,350.340698 
	C885.160400,350.610016 884.915222,350.894470 884.383911,351.230774 
z"/>
<path fill="#111F72" opacity="1.000000" stroke="none" 
	d="
M923.408936,286.321167 
	C923.257690,286.116821 923.358887,285.736938 923.690063,285.163971 
	C923.833923,285.362427 923.747681,285.754028 923.408936,286.321167 
z"/>
<path fill="#1A227B" opacity="1.000000" stroke="none" 
	d="
M890.536255,336.392639 
	C890.652527,335.942505 890.938049,335.669434 891.223511,335.396362 
	C891.336365,335.514679 891.553955,335.729889 891.547058,335.737335 
	C891.279297,336.026642 890.991028,336.296906 890.536255,336.392639 
z"/>
<path fill="#1A227B" opacity="1.000000" stroke="none" 
	d="
M892.005615,348.970215 
	C892.053467,348.312653 892.088379,347.666748 892.123291,347.020844 
	C892.281433,347.023865 892.439514,347.026855 892.597656,347.029846 
	C892.562744,347.569336 892.527832,348.108795 892.258850,348.815979 
	C892.024780,348.983704 891.992676,348.981873 892.005615,348.970215 
z"/>
<path fill="#272B7F" opacity="1.000000" stroke="none" 
	d="
M584.120178,335.077240 
	C583.106812,337.599487 583.106812,337.599487 580.347656,336.006683 
	C581.482849,335.582031 582.344543,335.259674 583.531067,334.879211 
	C583.855896,334.821075 584.024109,335.000488 584.120178,335.077240 
z"/>
<path fill="#FEFDFE" opacity="1.000000" stroke="none" 
	d="
M633.888550,337.977295 
	C633.715393,337.080719 633.990234,336.096619 634.639648,335.030701 
	C634.788330,335.929199 634.562439,336.909485 633.888550,337.977295 
z"/>
<path fill="#E8E9F6" opacity="1.000000" stroke="none" 
	d="
M560.115173,345.790222 
	C560.921997,342.062012 561.602051,338.709900 562.282166,335.357605 
	C566.957886,335.404724 567.517334,338.360413 567.068848,341.480774 
	C566.572815,344.931702 565.574219,348.428528 561.248108,348.950043 
	C560.944519,348.986664 560.413635,347.138214 560.115173,345.790222 
z"/>
<path fill="#E1E2F2" opacity="1.000000" stroke="none" 
	d="
M712.726074,348.142883 
	C713.932556,343.656738 715.019958,339.522644 716.107117,335.389160 
	C720.320496,336.484406 721.443848,338.228882 720.596375,342.313477 
	C719.479797,347.694580 717.577881,349.166107 712.726074,348.142883 
z"/>
<path fill="#ECECF7" opacity="1.000000" stroke="none" 
	d="
M662.473877,344.882294 
	C663.388367,341.885193 664.093079,339.164825 665.319580,336.704590 
	C665.756775,335.827606 667.469788,335.182953 668.579529,335.212708 
	C669.147278,335.227905 670.150696,336.982452 670.118713,337.922302 
	C670.031128,340.493042 669.859009,343.175568 669.016541,345.565735 
	C668.450500,347.171692 666.685974,348.355225 665.457703,349.727753 
	C664.461792,348.239044 663.465881,346.750336 662.473877,344.882294 
z"/>
<path fill="#ECECF7" opacity="1.000000" stroke="none" 
	d="
M934.045349,347.799866 
	C930.910217,351.213867 929.295410,349.961243 928.591187,346.408295 
	C927.588928,341.351990 930.228149,336.424896 934.742920,334.977509 
	C937.650330,339.264038 936.366577,343.374115 934.045349,347.799866 
z"/>
<path fill="#FEFDFE" opacity="1.000000" stroke="none" 
	d="
M793.434998,372.499207 
	C793.692993,371.489136 794.141174,370.672363 794.589417,369.855591 
	C794.867737,369.941467 795.146057,370.027344 795.424438,370.113220 
	C795.217651,370.996460 795.010864,371.879700 794.424194,372.899963 
	C793.904602,372.922150 793.764954,372.807343 793.434998,372.499207 
z"/>
</svg>